<svg preserveAspectRatio="none" overflow="visible" style="display: block;" width="125.215" height="20.0601" viewBox="0 0 125.215 20.0601" fill="none" xmlns="http://www.w3.org/2000/svg">
<g id="Group">
<path id="Vector" d="M124.825 0.0586691H104.706C104.448 0.0586691 104.203 0.266357 104.158 0.523328L103.551 3.9672C103.505 4.22417 103.677 4.43186 103.934 4.43186H110.7L108.028 19.5626C107.983 19.8196 108.155 20.0273 108.411 20.0273H114.067C114.324 20.0273 114.57 19.8196 114.614 19.5626L117.286 4.43186H124.053C124.31 4.43186 124.556 4.22417 124.6 3.9672L125.208 0.523328C125.254 0.266357 125.081 0.0586691 124.825 0.0586691Z" fill="black"/>
<path id="Vector_2" d="M24.4447 0.0586691H8.60826C5.26426 0.0586691 2.07652 2.76566 1.48668 6.10393L0.0943218 13.9902C-0.494346 17.3261 1.73343 20.032 5.07391 20.0355L20.9127 20.0543C21.17 20.0543 21.4156 19.8466 21.4614 19.5896L22.0689 16.1469C22.1147 15.8899 21.942 15.6822 21.6858 15.6822H7.77872C7.00676 15.6822 6.49212 15.058 6.62841 14.2871L7.00206 12.1715H19.6296C19.8869 12.1715 20.1325 11.9638 20.1772 11.7068L20.7846 8.26295C20.8305 8.00598 20.6577 7.79829 20.4016 7.79829H7.77402L8.12182 5.82936C8.25812 5.05845 8.99366 4.43421 9.76562 4.43421H23.6727C23.9301 4.43421 24.1756 4.22652 24.2203 3.96955L24.8278 0.525675C24.8736 0.268704 24.7009 0.0610158 24.4447 0.0610158V0.0586691Z" fill="black"/>
<path id="Vector_3" d="M72.6708 0.058669H56.7615C56.5042 0.058669 56.2586 0.266357 56.2139 0.523328L54.5431 9.98313L54.5161 10.1357L52.8453 19.5955C52.7994 19.8524 52.9722 20.0601 53.2283 20.0601H69.1376C71.967 20.0601 74.6647 17.7697 75.1629 14.9442L75.3815 13.7027C75.6987 11.9051 74.6871 10.4055 73.0515 10.0582C74.8093 9.7109 76.3508 8.21132 76.6681 6.4137L76.8866 5.17226C77.386 2.34676 75.4966 0.0563223 72.6673 0.0563223L72.6708 0.058669ZM69.1517 14.2918C69.0154 15.0627 68.2799 15.6869 67.5079 15.6869H60.122L60.7282 12.2536H68.1142C68.8862 12.2536 69.4008 12.8779 69.2645 13.6488L69.1505 14.2918H69.1517ZM70.5323 6.4712C70.396 7.24211 69.6605 7.86635 68.8885 7.86635H61.5026L62.1088 4.43303H69.4948C70.2668 4.43303 70.7814 5.05727 70.6451 5.82818L70.5311 6.4712H70.5323Z" fill="black"/>
<path id="Vector_4" d="M96.1775 0.0586691H86.4099C83.3232 0.0586691 80.6278 1.15578 79.0568 10.0524C77.4859 18.9489 79.7971 20.0284 82.8838 20.0284H92.6514C95.7381 20.0284 98.43 18.9489 100.001 10.0524C101.572 1.15578 99.263 0.0586691 96.1775 0.0586691ZM92.669 14.2777C92.5327 15.0486 91.7972 15.6729 91.0252 15.6729H86.048C85.276 15.6729 84.7614 15.0486 84.8977 14.2777L86.3899 5.82818C86.5262 5.05727 87.2618 4.43303 88.0337 4.43303H93.011C93.7829 4.43303 94.2976 5.05727 94.1613 5.82818L92.669 14.2777Z" fill="black"/>
<path id="Vector_5" d="M42.9667 11.3149L39.0059 15.0721L42.3193 19.8102C42.3898 19.9111 42.5073 19.9686 42.6413 19.9686H47.9933C48.3928 19.9686 48.6901 19.4981 48.4798 19.1977L42.9656 11.3149H42.9667Z" fill="black"/>
<path id="Vector_6" d="M51.5199 9.85917e-10H46.1678C46.0339 9.85917e-10 45.8952 0.0574957 45.7895 0.158406L40.8028 4.89652L43.436 8.65368L51.7337 0.770911C52.0498 0.470526 51.9194 9.85917e-10 51.5199 9.85917e-10Z" fill="black"/>
<path id="Vector_7" d="M39.4038 6.22713L35.1621 0.158406C35.0916 0.0574957 34.9741 0 34.8402 0H29.4928C29.0933 0 28.796 0.470526 29.0064 0.770911L35.45 9.9843L25.7528 19.1977C25.4367 19.4981 25.5672 19.9686 25.9667 19.9686H31.314C31.448 19.9686 31.5866 19.9111 31.6924 19.8102L38.0772 13.7426L42.0381 9.98547L39.405 6.22831L39.4038 6.22713Z" fill="#FF6B23"/>
</g>
</svg>
